<?xml version="1.0" standalone="no"?>
<!DOCTYPE svg PUBLIC "-//W3C//DTD SVG 20010904//EN"
 "http://www.w3.org/TR/2001/REC-SVG-20010904/DTD/svg10.dtd">
<svg version="1.0" xmlns="http://www.w3.org/2000/svg"
 width="192.000000pt" height="192.000000pt" viewBox="0 0 192.000000 192.000000"
 preserveAspectRatio="xMidYMid meet">
<metadata>
Created by potrace 1.11, written by Peter Selinger 2001-2013
</metadata>
<g transform="translate(0.000000,192.000000) scale(0.100000,-0.100000)"
fill="#000000" stroke="none">
<path d="M902 1843 c-47 -23 -66 -57 -72 -127 l-5 -59 -51 -17 c-155 -50 -274
-177 -334 -355 -22 -66 -24 -88 -28 -376 l-4 -306 -94 -94 c-89 -89 -94 -96
-94 -136 l0 -43 745 0 745 0 0 43 c0 40 -5 47 -95 137 l-95 95 0 265 c0 256
-8 362 -32 425 -40 106 -81 172 -152 238 -52 48 -173 117 -207 117 -16 0 -19
8 -19 43 0 121 -108 199 -208 150z"/>
<path d="M780 220 c0 -27 26 -89 48 -114 26 -29 92 -56 142 -56 84 0 166 69
177 149 l6 41 -187 0 c-180 0 -186 -1 -186 -20z"/>
</g>
</svg>
